HIERARCHY
ROOT Hips
{
	OFFSET 0.000000 0.000000 0.000000
	CHANNELS 6 Xposition Yposition Zposition Zrotation Yrotation Xrotation 
	JOINT LHipJoint
	{
		OFFSET 0.000000 0.000000 0.000000
		CHANNELS 3 Zrotation Yrotation Xrotation
		JOINT LeftUpLeg
		{
			OFFSET 1.363060 -1.794630 0.839290
			CHANNELS 3 Zrotation Yrotation Xrotation
			JOINT LeftLeg
			{
				OFFSET 2.448110 -6.726130 0.000000
				CHANNELS 3 Zrotation Yrotation Xrotation
				JOINT LeftFoot
				{
					OFFSET 2.562200 -7.039590 0.000000
					CHANNELS 3 Zrotation Yrotation Xrotation
					JOINT LeftToeBase
					{
						OFFSET 0.157640 -0.433110 2.322550
						CHANNELS 3 Zrotation Yrotation Xrotation
						End Site
						{
							OFFSET 0.000000 0.000000 0.000000
						}
					}
				}
			}
		}
	}
	JOINT RHipJoint
	{
		OFFSET 0.000000 0.000000 0.000000
		CHANNELS 3 Zrotation Yrotation Xrotation
		JOINT RightUpLeg
		{
			OFFSET -1.305520 -1.794630 0.839290
			CHANNELS 3 Zrotation Yrotation Xrotation
			JOINT RightLeg
			{
				OFFSET -2.542530 -6.985550 0.000000
				CHANNELS 3 Zrotation Yrotation Xrotation
				JOINT RightFoot
				{
					OFFSET -2.568260 -7.056230 0.000000
					CHANNELS 3 Zrotation Yrotation Xrotation
					JOINT RightToeBase
					{
						OFFSET -0.164730 -0.452590 2.363150
						CHANNELS 3 Zrotation Yrotation Xrotation
						End Site
						{
							OFFSET 0.000000 0.000000 0.000000
						}
					}
				}
			}
		}
	}
	JOINT LowerBack
	{
		OFFSET 0.000000 0.000000 0.000000
		CHANNELS 3 Zrotation Yrotation Xrotation
		JOINT Spine
		{
			OFFSET 0.028270 2.035590 -0.193380
			CHANNELS 3 Zrotation Yrotation Xrotation
			JOINT Spine1
			{
				OFFSET 0.056720 2.048850 -0.042750
				CHANNELS 3 Zrotation Yrotation Xrotation
				JOINT Neck
				{
					OFFSET 0.000000 0.000000 0.000000
					CHANNELS 3 Zrotation Yrotation Xrotation
					JOINT Neck1
					{
						OFFSET -0.054170 1.746240 0.172020
						CHANNELS 3 Zrotation Yrotation Xrotation
						JOINT Head
						{
							OFFSET 0.104070 1.761360 -0.123970
							CHANNELS 3 Zrotation Yrotation Xrotation
							End Site
							{
								OFFSET 0.000000 0.000000 0.000000
							}
						}
					}
				}
				JOINT LeftShoulder
				{
					OFFSET 0.000000 0.000000 0.000000
					CHANNELS 3 Zrotation Yrotation Xrotation
					JOINT LeftArm
					{
						OFFSET 3.362410 1.200890 -0.311210
						CHANNELS 3 Zrotation Yrotation Xrotation
						JOINT LeftForeArm
						{
							OFFSET 4.983000 -0.000000 -0.000000
							CHANNELS 3 Zrotation Yrotation Xrotation
							JOINT LeftHand
							{
								OFFSET 3.483560 -0.000000 -0.000000
								CHANNELS 3 Zrotation Yrotation Xrotation
								JOINT LeftFingerBase
								{
									OFFSET 0.000000 0.000000 0.000000
									CHANNELS 3 Zrotation Yrotation Xrotation
									JOINT LeftHandIndex1
									{
										OFFSET 0.715260 -0.000000 -0.000000
										CHANNELS 3 Zrotation Yrotation Xrotation
										End Site
										{
											OFFSET 0.000000 0.000000 0.000000
										}
									}
								}
								JOINT LThumb
								{
									OFFSET 0.000000 0.000000 0.000000
									CHANNELS 3 Zrotation Yrotation Xrotation
									End Site
									{
										OFFSET 0.000000 0.000000 0.000000
									}
								}
							}
						}
					}
				}
				JOINT RightShoulder
				{
					OFFSET 0.000000 0.000000 0.000000
					CHANNELS 3 Zrotation Yrotation Xrotation
					JOINT RightArm
					{
						OFFSET -3.136600 1.374050 -0.404650
						CHANNELS 3 Zrotation Yrotation Xrotation
						JOINT RightForeArm
						{
							OFFSET -5.241900 -0.000000 -0.000000
							CHANNELS 3 Zrotation Yrotation Xrotation
							JOINT RightHand
							{
								OFFSET -3.444170 -0.000000 -0.000000
								CHANNELS 3 Zrotation Yrotation Xrotation
								JOINT RightFingerBase
								{
									OFFSET 0.000000 0.000000 0.000000
									CHANNELS 3 Zrotation Yrotation Xrotation
									JOINT RightHandIndex1
									{
										OFFSET -0.622530 -0.000000 -0.000000
										CHANNELS 3 Zrotation Yrotation Xrotation
										End Site
										{
											OFFSET 0.000000 0.000000 0.000000
										}
									}
								}
								JOINT RThumb
								{
									OFFSET 0.000000 0.000000 0.000000
									CHANNELS 3 Zrotation Yrotation Xrotation
									End Site
									{
										OFFSET 0.000000 0.000000 0.000000
									}
								}
							}
						}
					}
				}
			}
		}
	}
}
MOTION
Frames: 5
Frame Time: 0.008333
0.058378 17.731039 -17.643671 -0.028532 4.443474 0.049696 -5.504801 -1.677893 0.940195 -13.740419 0.064749 -7.408153 1.507298 9.729759 26.931522 1.920396 -9.351152 -4.190285 0.303700 -3.543100 -9.794600 4.529772 2.098403 -0.323424 15.899208 0.895817 -8.001413 -3.087387 -11.867651 32.384797 -0.453637 -1.678814 -14.375539 -0.214000 2.978500 -8.218900 -2.804305 1.622959 10.974115 1.321814 1.864700 -0.576260 4.235524 1.267606 -5.180852 -12.441231 -2.713139 -15.373835 1.689091 -1.876507 21.369193 4.576900 -2.713000 13.116900 7.532514 4.213725 -0.523396 -101.495627 6.490298 17.061506 13.393640 -21.746334 -1.966175 1.147249 0.098476 7.765920 10.422900 28.358955 4.424700 -7.125000 0.000000 0.000000 -23.264200 56.955800 -7.077300 -10.974498 -5.669974 -0.635759 99.608689 2.730502 26.914910 -20.731163 32.102089 -5.926616 0.231290 0.559708 -0.927904 -25.062011 13.612474 -6.058200 7.125000 0.000000 0.000000 1.382200 -15.688200 0.957200 
0.059073 17.735408 -17.630367 -0.042213 4.686161 0.005254 -5.502285 -1.675293 0.944185 -13.738502 -0.031304 -7.257871 1.492880 9.706048 26.853770 1.922827 -9.374157 -4.180887 0.311800 -3.589800 -9.925500 4.534768 2.103495 -0.317041 15.903837 0.709579 -7.858256 -3.047543 -11.822782 32.199399 -0.450812 -1.694564 -14.367604 -0.196100 2.851800 -7.866500 -2.759211 1.663796 10.932193 1.289851 1.921859 -0.612758 4.145332 1.295386 -5.232573 -12.461441 -2.783239 -15.389711 1.750488 -1.984726 21.554064 4.591900 -2.767300 13.225900 7.527300 4.206818 -0.527852 -101.470508 6.282375 16.652433 13.337991 -21.655346 -1.948307 1.144424 0.081405 7.924116 10.672117 27.965926 4.489900 -7.125000 0.000000 0.000000 -22.751600 56.661600 -6.745200 -10.980301 -5.671116 -0.634684 99.653646 2.617005 27.290304 -21.026702 32.494963 -6.140578 0.217700 0.551509 -1.453730 -23.755964 12.892418 -5.403900 7.125000 0.000000 0.000000 2.248400 -16.593600 1.513800 
0.059967 17.738287 -17.615375 -0.122092 4.694222 -0.084324 -5.498289 -1.667815 0.956398 -13.677835 -0.084376 -7.046362 1.478469 9.684239 26.773162 1.905486 -9.229424 -4.203296 0.315800 -3.612600 -9.989400 4.538399 2.102543 -0.315015 16.022870 0.728041 -7.672014 -3.013463 -11.782591 32.042358 -0.399871 -1.999367 -14.356885 -0.258100 3.268800 -9.028100 -2.658681 1.764663 10.882851 1.255307 2.064622 -0.671742 4.021554 1.365715 -5.339682 -12.562911 -2.942239 -15.188360 1.839698 -2.220054 21.658119 4.622300 -2.880100 13.270000 7.517999 4.211555 -0.534261 -101.387922 6.367413 16.500989 13.452205 -21.834060 -1.980057 1.150247 0.090298 7.770934 10.822382 28.327131 4.612800 -7.125000 0.000000 0.000000 -22.854500 57.019800 -6.979300 -10.996896 -5.666050 -0.622350 99.724689 2.213127 27.700728 -21.395809 32.956214 -6.382101 0.196515 0.552931 -1.884591 -23.281149 11.944816 -4.882400 7.125000 0.000000 0.000000 2.544400 -17.662000 1.654100 
0.063938 17.740868 -17.600781 -0.127536 4.723554 -0.151896 -5.497986 -1.663029 0.965254 -13.713693 -0.172220 -6.845640 1.470149 9.671709 26.726811 1.888022 -9.087695 -4.246171 0.318800 -3.629600 -10.036900 4.539969 2.104615 -0.309483 16.012696 0.621455 -7.538649 -2.982770 -11.747671 31.898323 -0.377465 -2.090307 -14.242435 -0.321700 3.645800 -10.082400 -2.619211 1.816651 10.862457 1.234473 2.135262 -0.744552 3.958049 1.405218 -5.478688 -12.675535 -3.030826 -15.028041 1.834667 -2.331772 21.695861 4.630600 -2.948200 13.274200 7.510668 4.215432 -0.539084 -101.378418 6.619559 16.341967 13.633838 -22.130848 -2.040061 1.156295 0.101031 7.491907 10.982643 28.756064 4.752100 -7.125000 0.000000 0.000000 -23.001900 57.443200 -7.266500 -11.012048 -5.668072 -0.618064 99.687142 1.818925 28.336205 -21.652063 33.260260 -6.535176 0.195745 0.554645 -2.069526 -23.465867 12.004824 -4.950200 7.125000 0.000000 0.000000 2.416900 -17.581900 1.575400 
0.065924 17.745336 -17.588569 -0.149774 4.781122 -0.132259 -5.499930 -1.663233 0.964996 -13.712733 -0.264347 -6.753797 1.464293 9.661734 26.692586 1.880847 -9.012521 -4.306395 0.325700 -3.668100 -10.144700 4.539908 2.104769 -0.307328 16.006227 0.562246 -7.454796 -2.959278 -11.719370 31.785560 -0.374983 -2.099105 -14.225093 -0.340100 3.747500 -10.367300 -2.599951 1.828322 10.723007 1.253388 2.153515 -0.738756 3.978247 1.413590 -5.384565 -12.755593 -3.040540 -15.220806 1.751735 -2.293109 21.715473 4.612700 -2.949900 13.325200 7.508677 4.209406 -0.537113 -101.524449 6.495729 15.831954 13.695947 -22.262441 -2.076876 1.154199 0.073404 7.508538 11.443420 28.241091 4.900700 -7.125000 0.000000 0.000000 -22.197800 57.094700 -6.805400 -11.010019 -5.683175 -0.630611 99.556733 1.812856 29.069820 -21.809118 33.447635 -6.622704 0.217596 0.548944 -2.143179 -23.545099 13.113741 -5.449500 7.125000 0.000000 0.000000 2.402600 -16.368700 1.629600 
